<?xml version="1.0" encoding="utf-8"?>
<!-- Generator: Adobe Illustrator 19.0.0, SVG Export Plug-In . SVG Version: 6.00 Build 0)  -->
<svg version="1.1" id="Layer_1" xmlns="http://www.w3.org/2000/svg" xmlns:xlink="http://www.w3.org/1999/xlink" x="0px" y="0px"
	 viewBox="0 0 128 128" style="enable-background:new 0 0 128 128;" xml:space="preserve">
<style type="text/css">
	.st0{fill:#842195;stroke:#842195;stroke-miterlimit:10;}
</style>
<g id="XMLID_3_">
	<g id="XMLID_19_">
		<path id="XMLID_66_" class="st0" d="M63.2,64.3l-0.3-0.2c-0.1-0.1-11.5-8-11.5-22.7c0-9.1,2.8-14,5.9-19.3c1.9-3.4,4-6.9,5.4-11.7
			l0.5-1.6l0.5,1.6c1.5,4.9,3.5,8.4,5.4,11.7c3,5.2,5.9,10.2,5.9,19.3c0,14.8-11.4,22.7-11.5,22.7L63.2,64.3z M63.2,12.2
			c-1.4,4.2-3.3,7.4-5,10.5c-2.9,5.1-5.7,10-5.7,18.8c0,13,9,20.4,10.8,21.7c1.7-1.3,10.8-8.8,10.8-21.7c0-8.8-2.8-13.7-5.7-18.8
			C66.4,19.6,64.6,16.4,63.2,12.2z"/>
	</g>
	<g id="XMLID_18_">
		<path id="XMLID_63_" class="st0" d="M59.5,64.5c-4.8,0-13.3-1.2-20.4-8.2c-6.4-6.4-7.9-11.9-9.5-17.8c-1-3.8-2.1-7.7-4.5-12.1
			l-0.8-1.5l1.5,0.8c4.5,2.4,8.4,3.5,12.1,4.5c5.8,1.6,11.4,3.1,17.8,9.5c10.5,10.5,8,24.1,8,24.2l-0.1,0.3l-0.3,0.1
			C63.2,64.2,61.8,64.5,59.5,64.5z M26.7,27.3c2,4,2.9,7.5,3.8,11c1.5,5.7,3,11.1,9.2,17.3c9.2,9.2,20.8,8,23,7.7
			c0.3-2.1,1.4-13.8-7.7-23c-6.2-6.2-11.6-7.7-17.3-9.2C34.2,30.2,30.7,29.2,26.7,27.3z"/>
	</g>
	<g id="XMLID_17_">
		<path id="XMLID_60_" class="st0" d="M40.8,75.5c-9.1,0-14-2.8-19.3-5.9c-3.4-1.9-6.9-4-11.7-5.4l-1.6-0.5l1.6-0.5
			c4.9-1.5,8.4-3.5,11.7-5.4c5.2-3,10.2-5.9,19.3-5.9c14.8,0,22.7,11.4,22.7,11.5l0.2,0.3L63.6,64C63.5,64.1,55.6,75.5,40.8,75.5z
			 M11.6,63.7c4.2,1.4,7.4,3.3,10.5,5c5.1,2.9,10,5.7,18.8,5.7c13,0,20.4-9,21.7-10.8C61.2,62,53.8,53,40.8,53
			c-8.8,0-13.7,2.8-18.8,5.7C19,60.5,15.8,62.3,11.6,63.7z"/>
	</g>
	<g id="XMLID_16_">
		<path id="XMLID_57_" class="st0" d="M24.3,102.6l0.8-1.5c2.4-4.5,3.5-8.4,4.5-12.1c1.6-5.8,3.1-11.4,9.5-17.8
			c10.5-10.5,24.1-8,24.2-8l0.3,0.1l0.1,0.3c0,0.1,2.5,13.7-8,24.2c-6.4,6.4-11.9,7.9-17.8,9.5c-3.8,1-7.7,2.1-12.1,4.5L24.3,102.6z
			 M59.5,64c-4.6,0-12.9,1.1-19.7,7.9c-6.2,6.2-7.7,11.6-9.2,17.3c-0.9,3.4-1.9,7-3.8,11c4-2,7.5-2.9,11-3.8
			c5.7-1.5,11.1-3,17.3-9.2c9.2-9.2,8-20.8,7.7-23C62.2,64.1,61,64,59.5,64z"/>
	</g>
	<g id="XMLID_15_">
		<path id="XMLID_54_" class="st0" d="M63.2,118.7l-0.5-1.6c-1.5-4.9-3.5-8.4-5.4-11.7c-3-5.2-5.9-10.2-5.9-19.3
			c0-14.8,11.4-22.7,11.5-22.7l0.3-0.2l0.3,0.2c0.1,0.1,11.5,8,11.5,22.7c0,9.1-2.8,14-5.9,19.3c-1.9,3.4-4,6.9-5.4,11.7L63.2,118.7
			z M63.2,64.3c-1.7,1.3-10.8,8.8-10.8,21.7c0,8.8,2.8,13.7,5.7,18.8c1.8,3.1,3.6,6.2,5,10.5c1.4-4.2,3.3-7.4,5-10.5
			c2.9-5.1,5.7-10,5.7-18.8C73.9,73.1,64.9,65.6,63.2,64.3z"/>
	</g>
	<g id="XMLID_14_">
		<path id="XMLID_51_" class="st0" d="M102,102.6l-1.5-0.8c-4.5-2.4-8.4-3.5-12.1-4.5c-5.8-1.6-11.4-3.1-17.8-9.5
			c-10.5-10.5-8-24.1-8-24.2l0.1-0.3l0.3-0.1c0.1,0,13.7-2.5,24.2,8c6.4,6.4,7.9,11.9,9.5,17.8c1,3.8,2.1,7.7,4.5,12.1L102,102.6z
			 M63.6,64.2c-0.3,2.1-1.4,13.8,7.7,23c6.2,6.2,11.6,7.7,17.3,9.2c3.4,0.9,7,1.9,11,3.8c-2-4-2.9-7.5-3.8-11
			c-1.5-5.7-3-11.1-9.2-17.3C77.4,62.7,65.7,63.9,63.6,64.2z"/>
	</g>
	<g id="XMLID_13_">
		<path id="XMLID_48_" class="st0" d="M85.5,75.5c-14.8,0-22.7-11.4-22.7-11.5l-0.2-0.3l0.2-0.3c0.1-0.1,8-11.5,22.7-11.5
			c9.1,0,14,2.8,19.3,5.9c3.4,1.9,6.9,4,11.7,5.4l1.6,0.5l-1.6,0.5c-4.9,1.5-8.4,3.5-11.7,5.4C99.5,72.6,94.6,75.5,85.5,75.5z
			 M63.8,63.7c1.3,1.7,8.8,10.8,21.7,10.8c8.8,0,13.7-2.8,18.8-5.7c3.1-1.8,6.2-3.6,10.5-5c-4.2-1.4-7.4-3.3-10.5-5
			c-5.1-2.9-10-5.7-18.8-5.7C72.5,53,65.1,62,63.8,63.7z"/>
	</g>
	<g id="XMLID_12_">
		<path id="XMLID_45_" class="st0" d="M66.9,64.5c-2.3,0-3.7-0.3-3.8-0.3l-0.3-0.1l-0.1-0.3c0-0.1-2.5-13.7,8-24.2
			c6.4-6.4,11.9-7.9,17.8-9.5c3.8-1,7.7-2.1,12.1-4.5l1.5-0.8l-0.8,1.5c-2.4,4.5-3.5,8.4-4.5,12.1c-1.6,5.8-3.1,11.4-9.5,17.8
			C80.2,63.3,71.7,64.5,66.9,64.5z M63.6,63.3c2.1,0.3,13.8,1.4,23-7.7c6.2-6.2,7.7-11.6,9.2-17.3c0.9-3.4,1.9-7,3.8-11
			c-4,2-7.5,2.9-10.9,3.8c-5.7,1.5-11.1,3-17.3,9.2C62.2,49.5,63.3,61.1,63.6,63.3z"/>
	</g>
	<g id="XMLID_11_">
		<path id="XMLID_42_" class="st0" d="M63.4,64.3l-0.3-0.1c-0.1,0-13.7-3-19.3-16.6c-3.5-8.4-2.7-14.1-2-20c0.5-3.9,1-7.9,0.5-12.9
			L42.1,13l1.1,1.3c3.2,3.9,6.4,6.4,9.5,8.8c4.8,3.7,9.3,7.2,12.8,15.6c5.7,13.7-1.8,25.3-1.9,25.4L63.4,64.3z M43.4,16.1
			c0.3,4.4-0.2,8.1-0.6,11.6c-0.8,5.9-1.5,11.4,1.9,19.5c5,12,16.2,15.4,18.2,15.9c1.1-1.9,6.6-12.2,1.6-24.2
			c-3.4-8.1-7.8-11.5-12.5-15.1C49.3,21.7,46.4,19.4,43.4,16.1z"/>
	</g>
	<g id="XMLID_10_">
		<path id="XMLID_39_" class="st0" d="M48.6,68.2c-3.2,0-6.8-0.6-10.6-2.1c-8.4-3.5-11.9-8-15.6-12.8c-2.4-3.1-4.8-6.3-8.8-9.5
			l-1.3-1.1l1.7,0.2c5.1,0.5,9.1,0,12.9-0.5c6-0.8,11.7-1.5,20,2C60.7,50,63.6,63.5,63.7,63.6l0.1,0.3l-0.3,0.2
			C63.4,64.2,57.2,68.2,48.6,68.2z M15.5,44c3.3,2.9,5.6,5.8,7.7,8.6c3.6,4.7,7,9.1,15.1,12.5c12,5,22.3-0.5,24.2-1.6
			c-0.5-2.1-4-13.3-15.9-18.2c-8.1-3.4-13.7-2.7-19.5-1.9C23.6,43.8,20,44.3,15.5,44z"/>
	</g>
	<g id="XMLID_9_">
		<path id="XMLID_36_" class="st0" d="M34.6,85.7c-2.6,0-5.1-0.3-7.7-0.7c-3.9-0.5-7.9-1-12.9-0.5l-1.7,0.2l1.3-1.1
			c3.9-3.2,6.4-6.4,8.8-9.5c3.7-4.8,7.2-9.3,15.6-12.8c13.7-5.7,25.3,1.8,25.4,1.9l0.3,0.2l-0.1,0.3c0,0.1-3,13.7-16.6,19.3
			C42.2,85.1,38.3,85.7,34.6,85.7z M18.3,83.4c3.3,0,6.1,0.4,8.9,0.7c5.9,0.8,11.4,1.5,19.5-1.9c12-5,15.4-16.2,15.9-18.2
			c-1.9-1.1-12.2-6.6-24.2-1.6c-8.1,3.4-11.5,7.8-15.2,12.5c-2.2,2.8-4.4,5.7-7.7,8.6C16.5,83.4,17.4,83.4,18.3,83.4z"/>
	</g>
	<g id="XMLID_8_">
		<path id="XMLID_33_" class="st0" d="M42.1,114.5l0.2-1.7c0.5-5.1,0-9.1-0.5-12.9c-0.8-6-1.5-11.7,2-20
			c5.7-13.7,19.2-16.6,19.3-16.6l0.3-0.1l0.2,0.3c0.1,0.1,7.6,11.7,1.9,25.4c-3.5,8.4-8,11.9-12.8,15.6c-3.1,2.4-6.3,4.8-9.5,8.8
			L42.1,114.5z M62.9,64.3c-2.1,0.5-13.3,4-18.2,15.9c-3.4,8.1-2.7,13.7-1.9,19.5c0.5,3.5,0.9,7.1,0.6,11.6c2.9-3.3,5.8-5.6,8.6-7.7
			c4.7-3.6,9.1-7,12.5-15.1C69.5,76.5,64,66.2,62.9,64.3z"/>
	</g>
	<g id="XMLID_7_">
		<path id="XMLID_30_" class="st0" d="M84.2,114.5l-1.1-1.3c-3.2-3.9-6.4-6.4-9.5-8.8c-4.8-3.7-9.3-7.2-12.8-15.6
			c-5.7-13.7,1.8-25.3,1.9-25.4l0.2-0.3l0.3,0.1c0.1,0,13.7,3,19.3,16.6c3.5,8.4,2.7,14.1,2,20c-0.5,3.9-1,7.9-0.5,12.9L84.2,114.5z
			 M63.4,64.3c-1.1,1.9-6.6,12.2-1.6,24.2c3.4,8.1,7.8,11.5,12.5,15.2c2.8,2.2,5.7,4.4,8.6,7.7c-0.3-4.4,0.2-8.1,0.6-11.6
			c0.8-5.9,1.5-11.4-1.9-19.5C76.7,68.3,65.5,64.8,63.4,64.3z"/>
	</g>
	<g id="XMLID_6_">
		<path id="XMLID_27_" class="st0" d="M91.7,85.7c-3.6,0-7.5-0.6-12.4-2.6C65.6,77.5,62.7,64,62.7,63.8l-0.1-0.3l0.3-0.2
			c0.1-0.1,11.7-7.6,25.4-1.9c8.4,3.5,11.9,8,15.6,12.8c2.4,3.1,4.8,6.3,8.8,9.5l1.3,1.1l-1.7-0.2c-5.1-0.5-9.1,0-12.9,0.5
			C96.8,85.4,94.3,85.7,91.7,85.7z M63.7,64c0.5,2.1,4,13.3,15.9,18.3c8.1,3.4,13.7,2.7,19.5,1.9c3.5-0.5,7.1-0.9,11.6-0.6
			c-3.3-2.9-5.6-5.8-7.7-8.6c-3.6-4.7-7-9.1-15.2-12.5C75.9,57.4,65.6,62.9,63.7,64z"/>
	</g>
	<g id="XMLID_5_">
		<path id="XMLID_24_" class="st0" d="M77.7,68.2c-8.6,0-14.7-4-14.8-4L62.6,64l0.1-0.3c0-0.1,3-13.7,16.6-19.3
			c8.4-3.5,14.1-2.7,20-2c3.9,0.5,7.9,1,12.9,0.5l1.7-0.2l-1.3,1.1c-3.9,3.2-6.4,6.4-8.8,9.5c-3.7,4.8-7.2,9.3-15.6,12.8
			C84.6,67.6,81,68.2,77.7,68.2z M63.7,63.5c1.9,1.1,12.2,6.6,24.2,1.6c8.1-3.4,11.5-7.8,15.2-12.5c2.2-2.8,4.4-5.7,7.7-8.6
			c-4.4,0.3-8.1-0.2-11.6-0.6c-5.9-0.8-11.4-1.5-19.5,1.9C67.7,50.2,64.3,61.4,63.7,63.5z"/>
	</g>
	<g id="XMLID_4_">
		<path id="XMLID_21_" class="st0" d="M62.9,64.3L62.8,64c-0.1-0.1-7.6-11.7-1.9-25.4c3.5-8.4,8-11.9,12.8-15.6
			c3.1-2.4,6.3-4.8,9.5-8.8l1.1-1.3L84,14.6c-0.5,5.1,0,9.1,0.5,12.9c0.8,6,1.5,11.7-2,20c-5.7,13.7-19.2,16.6-19.3,16.6L62.9,64.3z
			 M82.9,16.1c-2.9,3.3-5.8,5.6-8.6,7.7c-4.7,3.6-9.1,7-12.5,15.2c-5,12,0.5,22.3,1.6,24.2c2.1-0.5,13.3-4,18.3-15.9
			c3.4-8.1,2.7-13.7,1.9-19.5C83.1,24.2,82.6,20.5,82.9,16.1z"/>
	</g>
</g>
</svg>
