<?xml version="1.0" encoding="utf-8"?>
<!-- Generator: Adobe Illustrator 19.0.0, SVG Export Plug-In . SVG Version: 6.00 Build 0)  -->
<svg version="1.1" id="Layer_1" xmlns="http://www.w3.org/2000/svg" xmlns:xlink="http://www.w3.org/1999/xlink" x="0px" y="0px"
	 viewBox="0 0 102.2 25.5" style="enable-background:new 0 0 102.2 25.5;" xml:space="preserve">
<style type="text/css">
	.st0{fill:#2F414A;}
</style>
<g id="XMLID_1_">
	<g id="XMLID_3_">
		<path id="XMLID_128_" class="st0" d="M11.8,8.2c0,3.3-2.2,4.7-5.7,4.7H3.3v7h0V3.5h2.9C10,3.5,11.8,4.9,11.8,8.2z M11.8,8.2
			c0-3.3-1.8-4.6-5.6-4.6H3.3v9.2h2.8C9.6,12.8,11.8,11.5,11.8,8.2z"/>
		<g id="XMLID_121_">
			<path id="XMLID_125_" d="M11.9,8.2c0,0.5,0,0.9-0.2,1.4c0,0.2-0.1,0.5-0.2,0.7c-0.1,0.2-0.2,0.4-0.3,0.6
				c-0.5,0.8-1.4,1.4-2.2,1.7C8,12.9,7.1,13,6.1,13l-2.8,0.1l0.2-0.2l0.1,7l0,0.3l-0.3,0l0,0l-0.3,0l0-0.3l-0.1-8.2L2.7,7.6
				c0-1.4,0-2.7,0-4.1l0-0.5l0.5,0l2.8,0.1c0.3,0,0.5,0,0.7,0l0.7,0.1C8,3.3,8.5,3.4,9,3.6c0.2,0.1,0.5,0.2,0.7,0.3
				c0.2,0.1,0.4,0.2,0.6,0.4c0.4,0.3,0.7,0.7,1,1.1C11.8,6.2,11.9,7.3,11.9,8.2z M11.8,8.2c0-0.9-0.2-1.9-0.7-2.7
				c-0.2-0.4-0.6-0.7-1-0.9C9.9,4.5,9.7,4.4,9.5,4.3C9.3,4.2,9.1,4.2,8.8,4.1C8.4,4,7.9,3.9,7.5,3.9l-0.7,0l-0.7,0L3.3,4l0.5-0.5
				c0,1.4,0,2.7,0,4.1l-0.1,4.1l-0.1,8.2l-0.3-0.3l0,0L3,19.8l0.1-7l0-0.2l0.2,0l2.8,0.1c0.9,0,1.9,0,2.7-0.3
				c0.9-0.3,1.7-0.8,2.2-1.5c0.1-0.2,0.2-0.4,0.3-0.6c0.1-0.2,0.2-0.4,0.2-0.7C11.7,9.1,11.8,8.7,11.8,8.2z"/>
			<path id="XMLID_122_" d="M11.7,8.2c0-0.9-0.1-1.9-0.7-2.7C11,5.3,10.8,5.2,10.6,5c-0.2-0.2-0.3-0.3-0.5-0.4
				C9.9,4.5,9.7,4.4,9.5,4.3C9.3,4.2,9.1,4.1,8.8,4.1C8,3.8,7,3.8,6.1,3.8L3.3,3.9l0.3-0.3l0.2,9.2l-0.5-0.5c0.9,0,1.9,0,2.8,0
				l0.7,0c0.2,0,0.4,0,0.7,0c0.4,0,0.9-0.1,1.3-0.2c0.8-0.2,1.7-0.6,2.2-1.3c0.3-0.3,0.5-0.8,0.6-1.2C11.7,9.1,11.7,8.7,11.7,8.2z
				 M11.8,8.2c0,0.9-0.1,1.9-0.6,2.8c-0.5,0.9-1.3,1.5-2.3,1.9C8.5,13,8,13.1,7.5,13.2c-0.2,0-0.5,0.1-0.7,0.1c-0.2,0-0.5,0-0.7,0
				c-0.9,0-1.9,0-2.8,0l-0.5,0l0-0.5L3,3.6l0-0.3l0.3,0l2.8,0.1c0.5,0,1,0,1.4,0.1C8,3.5,8.5,3.6,8.9,3.7c0.9,0.3,1.8,0.9,2.2,1.7
				c0.1,0.2,0.2,0.4,0.3,0.6c0.1,0.2,0.2,0.4,0.2,0.7C11.8,7.2,11.8,7.7,11.8,8.2z"/>
		</g>
	</g>
	<g id="XMLID_6_">
		<path id="XMLID_101_" class="st0" d="M21.4,7.3L21.4,7.3c-0.3,0-0.6-0.1-1.1-0.1c-1.9,0-3.1,1-3.9,3.8v8.8h0V7.4h0v3.4
			c0.8-2.6,2-3.6,3.9-3.6C20.8,7.2,21.1,7.2,21.4,7.3z"/>
		<g id="XMLID_97_">
			<path id="XMLID_98_" d="M21.5,7.3L21.5,7.3l0,0.1l-0.1,0c-0.6-0.1-1.2-0.1-1.7,0c-0.6,0.1-1.1,0.3-1.5,0.7
				c-0.9,0.8-1.2,1.9-1.6,3l0-0.1l0.2,8.8l0,0.3l-0.4,0l0,0l-0.3,0l0-0.4l-0.1-6.2c0-2.1-0.1-4.1-0.1-6.2l0-0.5l0.5,0l0,0l0.5,0
				l0,0.5c0,1.1-0.1,2.3-0.1,3.4L16,10.7c0.4-1.1,0.9-2.3,1.9-3.1c0.5-0.4,1.1-0.6,1.7-0.6C20.3,7,20.9,7.1,21.5,7.3L21.5,7.3z
				 M21.4,7.4c-1.1-0.1-2.3,0-3.1,0.7c-0.8,0.7-1.2,1.8-1.5,2.9l-0.8,2.6L16,10.8c0-1.1-0.1-2.3-0.1-3.4l0.5,0.5l0,0l0.5-0.5
				c0,2.1,0,4.1-0.1,6.2l-0.1,6.2l-0.3-0.3l0,0l-0.3,0.3l0.2-8.8l0,0l0,0c0.4-1.1,0.8-2.3,1.8-3.1c0.5-0.4,1.1-0.6,1.7-0.7
				C20.3,7.1,20.9,7.2,21.4,7.4L21.4,7.4L21.4,7.4z"/>
		</g>
	</g>
	<g id="XMLID_8_">
		<path id="XMLID_110_" class="st0" d="M33.3,13.5c0,4.2-1.8,6.5-4.8,6.5c-3,0-4.8-2.4-4.8-6.4c0-4.2,1.9-6.5,4.8-6.5
			C31.5,7.2,33.3,9.5,33.3,13.5z M23.8,13.6c0,4,1.8,6.4,4.7,6.4c2.9,0,4.8-2.4,4.8-6.5c0-4-1.8-6.3-4.7-6.3
			C25.7,7.2,23.8,9.5,23.8,13.6z"/>
		<g id="XMLID_103_">
			<path id="XMLID_107_" d="M33.4,13.5c0,0,0,0.1,0,0.4c0,0.3,0,0.7-0.1,1.1c-0.1,0.5-0.2,1.1-0.4,1.8c-0.2,0.7-0.6,1.4-1.1,2
				c-0.6,0.7-1.5,1.2-2.5,1.3c-0.3,0.1-0.5,0.1-0.8,0.1c-0.3,0-0.5,0-0.8-0.1c-0.5-0.1-1.1-0.2-1.6-0.5c-1-0.5-1.8-1.5-2.2-2.6
				c-0.4-1.1-0.6-2.3-0.6-3.4c0-1.1,0.1-2.4,0.5-3.5c0.4-1.1,1.1-2.2,2.1-2.8c1-0.6,2.2-0.8,3.2-0.6c1.1,0.1,2,0.7,2.6,1.4
				c0.6,0.7,1,1.4,1.2,2.1c0.2,0.7,0.3,1.3,0.3,1.8c0,0.5,0.1,0.9,0.1,1.2C33.4,13.4,33.4,13.5,33.4,13.5z M33.3,13.5
				c0,0,0-0.1,0-0.4c0-0.3,0-0.6-0.1-1.1c-0.1-0.5-0.2-1.1-0.5-1.7c-0.3-0.6-0.7-1.3-1.3-1.8c-0.6-0.5-1.4-0.8-2.2-0.9
				c-0.9-0.1-1.8,0.1-2.6,0.6c-0.8,0.5-1.4,1.3-1.8,2.3c-0.4,1-0.5,2-0.6,3.2c0,1.1,0.1,2.2,0.5,3.2c0.4,1,1,1.9,1.8,2.4
				c0.4,0.3,0.9,0.4,1.4,0.5c0.2,0.1,0.5,0.1,0.7,0.1c0.2,0,0.5,0,0.7,0c0.9-0.1,1.7-0.5,2.3-1.1c0.6-0.6,1-1.3,1.2-1.9
				c0.3-0.6,0.4-1.2,0.4-1.7c0.1-0.5,0.1-0.9,0.1-1.1C33.3,13.7,33.3,13.5,33.3,13.5z"/>
			<path id="XMLID_104_" d="M23.8,13.6c0,0,0,0.1,0,0.4c0,0.3,0,0.6,0.1,1.1c0.1,0.5,0.2,1.1,0.4,1.7c0.2,0.6,0.6,1.3,1.2,1.8
				c0.6,0.6,1.4,0.9,2.3,1c0.9,0.1,1.9-0.1,2.7-0.6c0.8-0.5,1.4-1.4,1.8-2.4c0.3-1,0.5-2.1,0.4-3.2c0-1.1-0.2-2.1-0.6-3.1
				c-0.4-0.9-1-1.8-1.8-2.2c-0.8-0.5-1.7-0.6-2.6-0.5c-0.8,0.1-1.6,0.4-2.2,0.9c-0.6,0.5-1,1.2-1.3,1.8c-0.3,0.6-0.4,1.2-0.5,1.7
				c-0.1,0.5-0.1,0.9-0.1,1.1C23.8,13.5,23.8,13.6,23.8,13.6z M23.7,13.6c0,0,0-0.1,0-0.4c0-0.3,0-0.6,0.1-1.1
				c0.1-0.5,0.1-1.1,0.3-1.8c0.2-0.7,0.5-1.4,1.1-2.1c0.6-0.7,1.5-1.2,2.6-1.4c1-0.2,2.2,0,3.2,0.6c1,0.6,1.8,1.7,2.1,2.8
				c0.4,1.1,0.5,2.3,0.5,3.4c0,1.2-0.2,2.3-0.6,3.4c-0.4,1.1-1.1,2.1-2.1,2.6c-0.5,0.3-1,0.5-1.5,0.5c-0.3,0-0.5,0.1-0.8,0.1
				c-0.3,0-0.5,0-0.8-0.1c-1-0.1-1.9-0.6-2.5-1.3c-0.6-0.6-0.9-1.4-1.2-2c-0.2-0.7-0.3-1.2-0.4-1.7c-0.1-0.5-0.1-0.9-0.1-1.1
				C23.7,13.8,23.7,13.6,23.7,13.6z"/>
		</g>
	</g>
	<g id="XMLID_11_">
		<path id="XMLID_83_" class="st0" d="M40.5,20C38.9,20,38,19,38,17.1V7.5h-2.1v0H38V4.2h0v3.2h3.5v0h-3.5v9.6
			C38.1,18.9,39,20,40.5,20c1,0,1.7-0.4,2.2-0.7l0,0C42.2,19.7,41.5,20,40.5,20z"/>
		<g id="XMLID_79_">
			<path id="XMLID_80_" d="M40.5,20.1c-0.6,0-1.2-0.2-1.6-0.6c-0.4-0.4-0.7-1-0.8-1.6c-0.1-0.6-0.1-1.2-0.1-1.8l0-1.7
				c0-2.3-0.1-4.7-0.1-7L38,7.7l-2.1,0l-0.3,0l0-0.3l0,0l0-0.3l0.3,0l2.1,0l-0.3,0.3l0-3.2l0-0.4l0.4,0l0,0l0.4,0l0,0.4l0,3.2
				L38.1,7L41.6,7L42,7l0,0.5l0,0l0,0.4l-0.5,0L38.1,8l0.5-0.5c0,1.4,0,2.7,0,4.1c0,1.4,0,2.7-0.1,4.1l0,1l0,0.5c0,0.2,0,0.3,0,0.5
				c0,0.6,0.2,1.2,0.6,1.6c0.4,0.4,1.1,0.6,1.7,0.6c0.7,0,1.3-0.2,1.9-0.6l0.1-0.1l0.1,0.1l0,0l0,0.1l-0.1,0.1
				C42.1,19.9,41.3,20.1,40.5,20.1z M40.5,20c0.8,0,1.5-0.3,2.2-0.7l0,0.1l0,0l0.2,0c-0.6,0.4-1.2,0.7-1.9,0.8
				c-0.7,0.1-1.5,0-2.1-0.5c-0.6-0.5-0.9-1.3-1-2c0-0.2,0-0.4-0.1-0.5l0-0.5l0-1c0-1.4-0.1-2.7-0.1-4.1c0-1.4,0-2.7,0-4.1l0-0.5
				l0.5,0L41.6,7l-0.4,0.4l0,0l0.4,0.4l-3.5-0.1l-0.4,0l0-0.4l0-3.2l0.4,0.4l0,0l0.4-0.4l0,3.2l0,0.3l-0.3,0l-2.1,0l0.3-0.3l0,0
				l-0.3-0.3l2.1,0l0.3,0l0,0.3c0,2.3-0.1,4.7-0.1,7l0,1.7c0,0.6-0.1,1.2,0,1.7c0.1,0.6,0.3,1.1,0.8,1.5C39.3,19.8,39.9,20,40.5,20z
				"/>
		</g>
	</g>
	<g id="XMLID_13_">
		<path id="XMLID_92_" class="st0" d="M54.2,13.5c0,4.2-1.8,6.5-4.8,6.5c-3,0-4.8-2.4-4.8-6.4c0-4.2,1.9-6.5,4.8-6.5
			C52.4,7.2,54.2,9.5,54.2,13.5z M44.7,13.6c0,4,1.8,6.4,4.7,6.4c2.9,0,4.8-2.4,4.8-6.5c0-4-1.8-6.3-4.7-6.3
			C46.6,7.2,44.7,9.5,44.7,13.6z"/>
		<g id="XMLID_85_">
			<path id="XMLID_89_" d="M54.3,13.5c0,0,0,0.1,0,0.4c0,0.3,0,0.7-0.1,1.1c-0.1,0.5-0.2,1.1-0.4,1.8c-0.2,0.7-0.6,1.4-1.1,2
				c-0.6,0.7-1.5,1.2-2.5,1.3c-0.3,0.1-0.5,0.1-0.8,0.1c-0.3,0-0.5,0-0.8-0.1c-0.5-0.1-1.1-0.2-1.6-0.5c-1-0.5-1.8-1.5-2.2-2.6
				c-0.4-1.1-0.6-2.3-0.6-3.4c0-1.1,0.1-2.4,0.5-3.5c0.4-1.1,1.1-2.2,2.1-2.8c1-0.6,2.2-0.8,3.2-0.6c1.1,0.1,2,0.7,2.6,1.4
				c0.6,0.7,1,1.4,1.2,2.1c0.2,0.7,0.3,1.3,0.3,1.8c0,0.5,0.1,0.9,0.1,1.2C54.3,13.4,54.3,13.5,54.3,13.5z M54.2,13.5
				c0,0,0-0.1,0-0.4c0-0.3,0-0.6-0.1-1.1c-0.1-0.5-0.2-1.1-0.5-1.7c-0.3-0.6-0.7-1.3-1.3-1.8c-0.6-0.5-1.4-0.8-2.2-0.9
				c-0.9-0.1-1.8,0.1-2.6,0.6c-0.8,0.5-1.4,1.3-1.8,2.3c-0.4,1-0.5,2-0.6,3.2c0,1.1,0.1,2.2,0.5,3.2c0.4,1,1,1.9,1.8,2.4
				c0.4,0.3,0.9,0.4,1.4,0.5c0.2,0.1,0.5,0.1,0.7,0.1c0.2,0,0.5,0,0.7,0c0.9-0.1,1.7-0.5,2.3-1.1c0.6-0.6,1-1.3,1.2-1.9
				c0.3-0.6,0.4-1.2,0.4-1.7c0.1-0.5,0.1-0.9,0.1-1.1C54.2,13.7,54.2,13.5,54.2,13.5z"/>
			<path id="XMLID_86_" d="M44.7,13.6c0,0,0,0.1,0,0.4c0,0.3,0,0.6,0.1,1.1c0.1,0.5,0.2,1.1,0.4,1.7c0.2,0.6,0.6,1.3,1.2,1.8
				c0.6,0.6,1.4,0.9,2.3,1c0.9,0.1,1.9-0.1,2.7-0.6c0.8-0.5,1.4-1.4,1.8-2.4c0.3-1,0.5-2.1,0.4-3.2c0-1.1-0.2-2.1-0.6-3.1
				c-0.4-0.9-1-1.8-1.8-2.2c-0.8-0.5-1.7-0.6-2.6-0.5c-0.8,0.1-1.6,0.4-2.2,0.9c-0.6,0.5-1,1.2-1.3,1.8c-0.3,0.6-0.4,1.2-0.5,1.7
				c-0.1,0.5-0.1,0.9-0.1,1.1C44.7,13.5,44.7,13.6,44.7,13.6z M44.6,13.6c0,0,0-0.1,0-0.4c0-0.3,0-0.6,0.1-1.1
				c0.1-0.5,0.1-1.1,0.3-1.8c0.2-0.7,0.5-1.4,1.1-2.1c0.6-0.7,1.5-1.2,2.6-1.4c1-0.2,2.2,0,3.2,0.6c1,0.6,1.8,1.7,2.1,2.8
				c0.4,1.1,0.5,2.3,0.5,3.4c0,1.2-0.2,2.3-0.6,3.4c-0.4,1.1-1.1,2.1-2.1,2.6c-0.5,0.3-1,0.5-1.5,0.5c-0.3,0-0.5,0.1-0.8,0.1
				c-0.3,0-0.5,0-0.8-0.1c-1-0.1-1.9-0.6-2.5-1.3c-0.6-0.6-0.9-1.4-1.2-2c-0.2-0.7-0.3-1.2-0.4-1.7c-0.1-0.5-0.1-0.9-0.1-1.1
				C44.6,13.8,44.6,13.6,44.6,13.6z"/>
		</g>
	</g>
	<g id="XMLID_16_">
		<path id="XMLID_43_" class="st0" d="M61.4,20c-1.6,0-2.5-1.1-2.5-2.9V7.5h-2.1v0h2.1V4.2h0v3.2h3.5v0H59v9.6
			C59,18.9,59.9,20,61.4,20c1,0,1.7-0.4,2.2-0.7l0,0C63.1,19.7,62.4,20,61.4,20z"/>
		<g id="XMLID_39_">
			<path id="XMLID_40_" d="M61.4,20.1c-0.6,0-1.2-0.2-1.6-0.6c-0.4-0.4-0.7-1-0.8-1.6c-0.1-0.6-0.1-1.2-0.1-1.8l0-1.7
				c0-2.3-0.1-4.7-0.1-7l0.3,0.3l-2.1,0l-0.3,0l0-0.3l0,0l0-0.3l0.3,0l2.1,0l-0.3,0.3l0-3.2l0-0.4l0.4,0l0,0l0.4,0l0,0.4l0,3.2L59,7
				L62.5,7l0.4,0l0,0.5l0,0l0,0.4l-0.5,0L59,8l0.5-0.5c0,1.4,0,2.7,0,4.1c0,1.4,0,2.7-0.1,4.1l0,1l0,0.5c0,0.2,0,0.3,0,0.5
				c0,0.6,0.2,1.2,0.6,1.6c0.4,0.4,1.1,0.6,1.7,0.6c0.7,0,1.3-0.2,1.9-0.6l0.1-0.1l0.1,0.1l0,0l0,0.1l-0.1,0.1
				C63,19.9,62.2,20.1,61.4,20.1z M61.4,20c0.8,0,1.5-0.3,2.2-0.7l0,0.1l0,0l0.2,0c-0.6,0.4-1.2,0.7-1.9,0.8c-0.7,0.1-1.5,0-2.1-0.5
				c-0.6-0.5-0.9-1.3-1-2c0-0.2,0-0.4-0.1-0.5l0-0.5l0-1c0-1.4-0.1-2.7-0.1-4.1c0-1.4,0-2.7,0-4.1l0-0.5L59,7L62.5,7L62,7.5l0,0
				l0.4,0.4L59,7.8l-0.4,0l0-0.4l0-3.2L59,4.6l0,0l0.4-0.4l0,3.2l0,0.3l-0.3,0l-2.1,0l0.3-0.3l0,0l-0.3-0.3l2.1,0l0.3,0l0,0.3
				c0,2.3-0.1,4.7-0.1,7l0,1.7c0,0.6-0.1,1.2,0,1.7c0.1,0.6,0.3,1.1,0.8,1.5C60.2,19.8,60.8,20,61.4,20z"/>
		</g>
	</g>
	<g id="XMLID_18_">
		<path id="XMLID_74_" class="st0" d="M69.2,19.8L69.2,19.8L64.6,7.4h0L69.2,19.8z M69.3,19.8c-0.9,2.7-1.5,3.8-4,4.5v0
			C67.8,23.6,68.3,22.5,69.3,19.8l4.2-12.4h0L69.3,19.8z"/>
		<g id="XMLID_67_">
			<path id="XMLID_71_" d="M69.3,19.9l-0.1,0l0,0l0,0c-1.7-4.1-3.3-8.2-4.9-12.3L64,7.1l0.6,0l0,0l0.2,0L65,7.3c0.5,1,0.9,2,1.3,3.1
				c0.4,1,0.8,2.1,1.1,3.1c0.3,1.1,0.7,2.1,1,3.2C68.7,17.7,69,18.7,69.3,19.9L69.3,19.9z M69.2,19.9c-0.5-1-1-2-1.4-3
				c-0.5-1-0.9-2-1.3-3c-0.4-1-0.8-2.1-1.2-3.1c-0.4-1-0.7-2.1-1-3.1l0.4,0.3l0,0l0.4-0.5C66.4,11.5,67.8,15.6,69.2,19.9L69.2,19.9
				L69.2,19.9L69.2,19.9z"/>
			<path id="XMLID_68_" d="M69.3,19.8c-0.4,1-0.7,2-1.3,2.9c-0.3,0.4-0.7,0.8-1.2,1.1c-0.5,0.3-1,0.5-1.5,0.7l-0.2,0.1l0-0.2l0,0
				l0-0.1l0.1,0c0.8-0.3,1.5-0.6,2-1.1c0.5-0.5,0.9-1.2,1.2-2c0.6-1.5,1-3.1,1.5-4.6l3-9.2l0.1-0.3l0.4,0l0,0l0.7,0L74,7.6
				c-0.3,1-0.7,2.1-1.1,3.1c-0.4,1-0.8,2-1.2,3.1C70.9,15.8,70.1,17.8,69.3,19.8z M69.2,19.8c0.7-2.1,1.2-4.2,1.8-6.3
				c0.3-1.1,0.6-2.1,0.9-3.1c0.4-1,0.7-2.1,1.1-3.1l0.5,0.7l0,0L74,7.6l-3.3,9.1c-0.6,1.5-1.1,3-1.7,4.6c-0.3,0.7-0.7,1.5-1.4,2.1
				c-0.7,0.6-1.5,0.9-2.2,1.1l0.1-0.2l0,0l-0.2-0.1c0.5-0.1,1-0.3,1.5-0.5c0.5-0.2,0.9-0.6,1.2-1c0.3-0.4,0.6-0.9,0.8-1.4
				C68.9,20.8,69.1,20.3,69.2,19.8z"/>
		</g>
	</g>
	<g id="XMLID_21_">
		<path id="XMLID_63_" class="st0" d="M85.8,13.5c0,4.1-1.5,6.6-4.3,6.6c-1.9,0-3.2-1.1-4.2-2.6v6.9h0v-17h0v2.3
			c1-1.4,2.3-2.5,4.3-2.5C84.4,7.2,85.8,9.5,85.8,13.5z M81.5,20c2.8,0,4.3-2.5,4.3-6.5c0-4-1.4-6.3-4.2-6.3c-2,0-3.2,1-4.3,2.6v7.6
			C78.3,19,79.6,20,81.5,20L81.5,20z"/>
		<g id="XMLID_56_">
			<path id="XMLID_60_" d="M85.9,13.5c0,1.2-0.1,2.3-0.5,3.5c-0.1,0.3-0.2,0.6-0.3,0.8c-0.1,0.3-0.3,0.5-0.4,0.8
				c-0.2,0.2-0.4,0.5-0.6,0.7c-0.2,0.2-0.5,0.4-0.7,0.5c-1.1,0.6-2.4,0.6-3.5,0.2c-1.2-0.4-2.1-1.3-2.7-2.3l0.5-0.1l0.1,6.9l0,0.3
				l-0.3,0l0,0l-0.3,0l0-0.3l-0.1-8.5c0-2.8-0.1-5.7-0.1-8.5l0-0.5l0.5,0l0,0l0.5,0l0,0.5l0,2.3l-0.9-0.3c0.7-1,1.6-1.9,2.8-2.3
				c0.6-0.2,1.2-0.3,1.8-0.3c0.3,0,0.6,0,0.9,0.1c0.3,0.1,0.6,0.2,0.9,0.3c0.3,0.1,0.5,0.3,0.8,0.5c0.2,0.2,0.4,0.4,0.6,0.7
				c0.3,0.5,0.6,1,0.8,1.6C85.8,11.2,85.9,12.3,85.9,13.5z M85.8,13.5c0-1.1-0.2-2.3-0.6-3.3c-0.4-1.1-1.1-2-2.1-2.4
				c-0.2-0.1-0.5-0.2-0.8-0.2c-0.2,0-0.6,0-0.8,0c-0.5,0-1.1,0.2-1.5,0.4c-1,0.4-1.7,1.2-2.3,2.1l-0.9,1.3l0-1.6l0-2.3l0.5,0.5l0,0
				l0.5-0.5c0,2.8,0,5.7-0.1,8.5l-0.1,8.5l-0.3-0.3l0,0L77,24.4l0.1-6.9l0-0.9l0.5,0.8c0.6,1,1.4,1.8,2.4,2.2c1,0.4,2.3,0.5,3.3,0
				c0.3-0.1,0.5-0.3,0.7-0.5c0.2-0.2,0.4-0.4,0.6-0.6c0.2-0.2,0.3-0.5,0.5-0.7c0.1-0.3,0.2-0.5,0.3-0.8
				C85.7,15.8,85.8,14.7,85.8,13.5z"/>
			<path id="XMLID_57_" d="M81.5,20c0.9,0,1.9-0.3,2.5-1c0.6-0.7,1-1.5,1.2-2.4c0.2-0.9,0.3-1.8,0.3-2.7c0-0.4,0-0.9-0.1-1.4
				c0-0.5-0.1-0.9-0.2-1.3c-0.2-0.9-0.5-1.7-1.1-2.4c-0.6-0.6-1.4-1-2.2-1.1c-0.4,0-0.9,0-1.3,0.1c-0.4,0.1-0.8,0.3-1.2,0.5
				c-0.7,0.4-1.3,1.1-1.8,1.9l0.1-0.3c0,1.3,0,2.5,0,3.8c0,1.3-0.1,2.5-0.2,3.8l-0.1-0.2c0.4,0.7,0.9,1.4,1.6,1.9
				c0.3,0.3,0.7,0.5,1.1,0.6c0.2,0.1,0.4,0.1,0.6,0.1l0.3,0l0.2,0L81.5,20L81.5,20L81.5,20L81.5,20L81.5,20L81.5,20L81.5,20
				C81.5,19.9,81.6,20,81.5,20L81.5,20z M81.5,20C81.5,20,81.6,20.1,81.5,20L81.5,20L81.5,20L81.5,20L81.5,20L81.5,20L81.5,20
				l-0.1,0l-0.2,0l-0.3,0c-0.2,0-0.4-0.1-0.6-0.1c-0.4-0.1-0.8-0.3-1.2-0.5c-0.8-0.4-1.4-1.1-1.9-1.8l0-0.1l0-0.1
				c-0.1-1.3-0.2-2.5-0.2-3.8c0-1.3,0-2.5,0-3.8l0-0.2l0.1-0.1c0.6-0.8,1.3-1.5,2.2-2C79.5,7.2,80,7,80.5,6.9c0.5-0.1,1-0.1,1.5-0.1
				c0.5,0.1,1,0.2,1.5,0.4c0.5,0.2,0.9,0.6,1.2,1c0.6,0.8,1,1.8,1.1,2.7c0.1,0.5,0.1,0.9,0.2,1.4c0,0.5,0,0.9,0,1.4
				c0,0.9-0.2,1.9-0.5,2.8c-0.3,0.9-0.7,1.8-1.4,2.4c-0.4,0.3-0.8,0.6-1.2,0.7C82.5,20,82,20,81.5,20L81.5,20z"/>
		</g>
	</g>
	<g id="XMLID_24_">
		<path id="XMLID_52_" class="st0" d="M98.7,13.8h-8.9c0,4,1.9,6.2,4.7,6.2c1.6,0,2.6-0.5,3.7-1.4l0,0c-1.1,0.9-2.1,1.4-3.7,1.4
			c-2.9,0-4.7-2.3-4.7-6.3c0-4.2,1.8-6.6,4.7-6.6c3,0,4.2,2.5,4.2,5.7C98.8,13.3,98.8,13.4,98.7,13.8z M98.7,12.9
			c0-3.2-1.3-5.7-4.2-5.7c-2.9,0-4.6,2.4-4.7,6.5h8.8C98.7,13.4,98.7,13.2,98.7,12.9z"/>
		<g id="XMLID_45_">
			<path id="XMLID_49_" d="M98.8,13.8L89.8,14l0.2-0.2c0,1,0.2,2.1,0.5,3.1c0.4,1,1,1.8,1.8,2.3c0.2,0.1,0.4,0.2,0.7,0.3
				c0.2,0.1,0.5,0.1,0.7,0.2c0.2,0,0.5,0,0.7,0.1c0.3,0,0.5,0,0.8-0.1c1-0.1,1.9-0.6,2.7-1.3l0.3-0.3l0.2,0.4l0,0l0.1,0.2l-0.2,0.2
				c-0.5,0.4-1.1,0.8-1.7,1.1c-0.6,0.3-1.3,0.4-2,0.4c-0.7,0-1.4-0.1-2.1-0.3c-0.7-0.3-1.3-0.7-1.7-1.2c-0.9-1.1-1.4-2.5-1.5-3.8
				c-0.1-0.7-0.1-1.4-0.1-2c0-0.7,0.1-1.4,0.3-2c0.3-1.3,1-2.7,2.2-3.5c0.6-0.4,1.3-0.7,2-0.8c0.4-0.1,0.7-0.1,1.1,0
				c0.3,0,0.7,0.1,1,0.2c0.7,0.2,1.3,0.6,1.8,1.1c0.5,0.5,0.8,1.1,1,1.8C98.9,11.2,98.9,12.5,98.8,13.8L98.8,13.8z M98.7,13.7
				c0-0.6,0-1.3-0.1-1.9c-0.1-0.6-0.3-1.2-0.5-1.8c-0.2-0.6-0.5-1.1-1-1.5c-0.4-0.4-0.9-0.7-1.5-0.8c-0.3-0.1-0.5-0.1-0.9-0.1
				c-0.3,0-0.6,0-0.9,0.1c-0.6,0.1-1.1,0.3-1.6,0.7c-0.9,0.7-1.4,1.8-1.7,3c-0.1,0.6-0.2,1.2-0.2,1.8c0,0.7,0,1.2,0,1.9
				c0.1,1.2,0.5,2.4,1.2,3.3c0.4,0.4,0.8,0.8,1.4,1c0.5,0.2,1.1,0.3,1.7,0.3c0.6,0,1.2-0.1,1.7-0.3c0.6-0.2,1.1-0.6,1.5-1l-0.1,0.4
				l0,0l0.5,0.1c-0.8,0.7-1.9,1.3-3,1.4c-0.6,0.1-1.1,0.1-1.7,0c-0.3,0-0.6-0.1-0.8-0.2c-0.3-0.1-0.5-0.2-0.8-0.4
				c-1-0.6-1.6-1.6-2-2.6c-0.4-1-0.5-2.1-0.5-3.2l0-0.2l0.2,0L98.7,13.7z"/>
			<path id="XMLID_46_" d="M98.7,12.9c0-0.7-0.1-1.4-0.2-2.1c-0.1-0.3-0.2-0.7-0.3-1c-0.1-0.3-0.3-0.6-0.5-0.9
				c-0.2-0.3-0.4-0.5-0.7-0.7C96.6,8,96.3,7.9,96,7.8c-0.3-0.1-0.6-0.2-1-0.2c-0.3,0-0.6,0-1,0c-0.3,0-0.6,0.1-0.9,0.2
				c-0.3,0.1-0.6,0.3-0.8,0.5C92,8.5,91.8,8.7,91.6,9c-0.2,0.3-0.4,0.5-0.5,0.8c-0.3,0.6-0.5,1.2-0.6,1.9c-0.1,0.7-0.1,1.3-0.1,2
				l-0.5-0.5c1.5,0,2.9,0,4.4,0.1c1.5,0.1,2.9,0.3,4.4,0.4l-0.1,0.1L98.7,12.9z M98.8,12.9l0,0.8l0,0.1l-0.1,0
				c-1.5,0.1-2.9,0.3-4.4,0.4c-1.5,0.1-2.9,0.1-4.4,0.1l-0.5,0l0-0.5c0-1.5,0.3-3,1-4.3c0.2-0.3,0.4-0.7,0.6-0.9
				c0.2-0.3,0.5-0.6,0.8-0.8c0.3-0.2,0.7-0.4,1-0.5C93.2,7.1,93.6,7,94,7c0.3,0,0.7,0,1.1,0c0.4,0.1,0.7,0.1,1.1,0.3
				c0.3,0.2,0.7,0.4,0.9,0.6c0.3,0.2,0.5,0.5,0.7,0.9c0.4,0.6,0.6,1.3,0.7,2C98.7,11.5,98.8,12.2,98.8,12.9z"/>
		</g>
	</g>
</g>
</svg>
