<?xml version="1.0" ?><!DOCTYPE svg  PUBLIC '-//W3C//DTD SVG 1.1//EN'  'http://www.w3.org/Graphics/SVG/1.1/DTD/svg11.dtd'><svg enable-background="new 0 0 50 50" id="Layer_1" version="1.1" viewBox="0 0 50 50" xml:space="preserve" xmlns="http://www.w3.org/2000/svg" xmlns:xlink="http://www.w3.org/1999/xlink"><path d="M34.1,12.6c0,0-18.5,0-18.6,0c-1.6,0-2.9,1.3-2.9,2.9l0,0c0,0,0,19,0,19c0,1.6,1.3,2.9,2.9,2.9  c0,0,19,0,19,0c1.5-0.1,2.9-1.3,2.9-2.9c0,0,0-19,0-19C37.3,14,35.6,12.7,34.1,12.6z M25,20.5c2.5,0,4.5,2,4.5,4.5  c0,2.5-2,4.5-4.5,4.5c-2.5,0-4.5-2-4.5-4.5C20.5,22.5,22.5,20.5,25,20.5z M34.1,32.4c0,0.9-0.7,1.6-1.6,1.6H25h-7.4  c-0.9,0-1.6-0.7-1.6-1.6v-9.5h1.9c-0.2,0.7-0.3,1.3-0.3,2.1c0,4.1,3.3,7.4,7.4,7.4s7.4-3.3,7.4-7.4c0-0.7-0.1-1.4-0.3-2.1h1.9V32.4z   M34.1,16.8v2.5h0c0,0.4-0.4,0.8-0.8,0.8v0h-2.5c-0.4,0-0.8-0.4-0.8-0.8h0v-2.5h0c0,0,0,0,0,0c0-0.5,0.4-0.8,0.8-0.8h2.5v0  C33.7,15.9,34.1,16.3,34.1,16.8C34.1,16.8,34.1,16.8,34.1,16.8L34.1,16.8z" fill="#527FA3" id="camera"/><path d="M25,1C11.7,1,1,11.7,1,25s10.7,24,24,24s24-10.7,24-24S38.3,1,25,1z M25,44C14.5,44,6,35.5,6,25S14.5,6,25,6  s19,8.5,19,19S35.5,44,25,44z" fill="#527FA3"/></svg>